<svg xmlns="http://www.w3.org/2000/svg" xmlns:xlink="http://www.w3.org/1999/xlink" viewBox="0 0 238.56 41.66"><defs><style>.cls-1{fill:url(#名称未設定グラデーション_17);}.cls-2{fill:#7e6f5a;}.cls-3{fill:url(#名称未設定グラデーション_17-2);}.cls-4{clip-path:url(#clip-path);}.cls-5{fill:url(#名称未設定グラデーション_17-4);}.cls-6{fill:url(#名称未設定グラデーション_17-5);}.cls-7{fill:url(#名称未設定グラデーション_17-6);}.cls-8{fill:url(#名称未設定グラデーション_17-7);}.cls-9{fill:url(#名称未設定グラデーション_17-8);}.cls-10{fill:url(#名称未設定グラデーション_17-9);}.cls-11{fill:url(#名称未設定グラデーション_17-10);}.cls-12{fill:url(#名称未設定グラデーション_17-11);}.cls-13{fill:url(#名称未設定グラデーション_17-12);}.cls-14{fill:url(#名称未設定グラデーション_17-13);}.cls-15{fill:url(#名称未設定グラデーション_17-14);}.cls-16{fill:url(#名称未設定グラデーション_17-15);}.cls-17{fill:url(#名称未設定グラデーション_17-16);}.cls-18{fill:url(#名称未設定グラデーション_17-17);}.cls-19{fill:url(#名称未設定グラデーション_17-18);}.cls-20{fill:url(#名称未設定グラデーション_17-19);}.cls-21{fill:url(#名称未設定グラデーション_17-20);}.cls-22{fill:url(#名称未設定グラデーション_17-21);}.cls-23{fill:url(#名称未設定グラデーション_17-22);}.cls-24{fill:url(#名称未設定グラデーション_17-23);}.cls-25{fill:url(#名称未設定グラデーション_17-24);}</style><linearGradient id="名称未設定グラデーション_17" x1="27.53" y1="3.61" x2="27.53" y2="53.24" gradientUnits="userSpaceOnUse"><stop offset="0" stop-color="#240002"/><stop offset="1" stop-color="#793f43"/></linearGradient><linearGradient id="名称未設定グラデーション_17-2" x1="28.25" y1="3.61" x2="28.25" y2="53.24" xlink:href="#名称未設定グラデーション_17"/><clipPath id="clip-path"><path class="cls-1" d="M22.07,37.32V32.1H33v5.19H25.36a1.1,1.1,0,0,1,0,.18c.94.3,1.87.64,2.82.87a1.7,1.7,0,0,1,1.49,1.52A8,8,0,0,1,26,39.48c-.19-.06-.38-.4-.44-.64a1.8,1.8,0,0,0-2.38-1.53A5.78,5.78,0,0,1,22.07,37.32Zm8.81-1.88V34.05H24.56v1.39Z"/></clipPath><linearGradient id="名称未設定グラデーション_17-4" x1="33.41" y1="3.61" x2="33.41" y2="53.24" xlink:href="#名称未設定グラデーション_17"/><linearGradient id="名称未設定グラデーション_17-5" x1="39.16" y1="3.61" x2="39.16" y2="53.24" xlink:href="#名称未設定グラデーション_17"/><linearGradient id="名称未設定グラデーション_17-6" x1="41.35" y1="3.61" x2="41.35" y2="53.24" xlink:href="#名称未設定グラデーション_17"/><linearGradient id="名称未設定グラデーション_17-7" x1="40.71" y1="3.61" x2="40.71" y2="53.24" xlink:href="#名称未設定グラデーション_17"/><linearGradient id="名称未設定グラデーション_17-8" x1="41.48" y1="3.61" x2="41.48" y2="53.24" xlink:href="#名称未設定グラデーション_17"/><linearGradient id="名称未設定グラデーション_17-9" x1="42.23" y1="3.61" x2="42.23" y2="53.24" xlink:href="#名称未設定グラデーション_17"/><linearGradient id="名称未設定グラデーション_17-10" x1="43.66" y1="3.61" x2="43.66" y2="53.24" xlink:href="#名称未設定グラデーション_17"/><linearGradient id="名称未設定グラデーション_17-11" x1="41.36" y1="3.61" x2="41.36" y2="53.24" xlink:href="#名称未設定グラデーション_17"/><linearGradient id="名称未設定グラデーション_17-12" x1="43.46" y1="3.61" x2="43.46" y2="53.24" xlink:href="#名称未設定グラデーション_17"/><linearGradient id="名称未設定グラデーション_17-13" x1="42.63" y1="3.61" x2="42.63" y2="53.24" xlink:href="#名称未設定グラデーション_17"/><linearGradient id="名称未設定グラデーション_17-14" x1="27.29" y1="3.61" x2="27.29" y2="53.24" xlink:href="#名称未設定グラデーション_17"/><linearGradient id="名称未設定グラデーション_17-15" x1="39.47" y1="3.61" x2="39.47" y2="53.24" xlink:href="#名称未設定グラデーション_17"/><linearGradient id="名称未設定グラデーション_17-16" x1="31.85" y1="3.61" x2="31.85" y2="53.24" xlink:href="#名称未設定グラデーション_17"/><linearGradient id="名称未設定グラデーション_17-17" x1="35.97" y1="3.61" x2="35.97" y2="53.24" xlink:href="#名称未設定グラデーション_17"/><linearGradient id="名称未設定グラデーション_17-18" x1="40.39" y1="3.61" x2="40.39" y2="53.24" xlink:href="#名称未設定グラデーション_17"/><linearGradient id="名称未設定グラデーション_17-19" x1="31.52" y1="3.6" x2="31.52" y2="53.24" xlink:href="#名称未設定グラデーション_17"/><linearGradient id="名称未設定グラデーション_17-20" x1="35.29" y1="3.61" x2="35.29" y2="53.24" xlink:href="#名称未設定グラデーション_17"/><linearGradient id="名称未設定グラデーション_17-21" x1="7.36" y1="3.61" x2="7.36" y2="53.25" xlink:href="#名称未設定グラデーション_17"/><linearGradient id="名称未設定グラデーション_17-22" x1="50.09" y1="3.61" x2="50.09" y2="53.25" xlink:href="#名称未設定グラデーション_17"/><linearGradient id="名称未設定グラデーション_17-23" x1="6.98" y1="3.61" x2="6.98" y2="53.24" xlink:href="#名称未設定グラデーション_17"/><linearGradient id="名称未設定グラデーション_17-24" x1="50.45" y1="3.61" x2="50.45" y2="53.24" xlink:href="#名称未設定グラデーション_17"/></defs><g id="Layer_2" data-name="Layer 2"><g id="Contents"><path class="cls-2" d="M79.13,17.75c-.09.14-.22.18-.52.09a24.12,24.12,0,0,1-2.79,1.29,10.81,10.81,0,0,0,4.37,1.57v.15A1.38,1.38,0,0,0,79.12,22c-2.88-.85-4.78-2.29-5.64-5.32H71.6v3.48c.9-.17,1.88-.37,2.89-.59l0,.19c-1.18.54-2.86,1.25-5.3,2.16a.59.59,0,0,1-.32.32l-.84-1.43c.49-.07,1.27-.22,2.21-.39V16.64H67.56l-.12-.37h2.84V10.13l1.57.6h4.68l.77-.92s.88.64,1.42,1.09c0,.15-.18.22-.38.22H71.6v1.43H76l.73-.88s.84.61,1.35,1.05c0,.15-.18.22-.37.22H71.6V14.4H76l.73-.87s.84.6,1.35,1c0,.15-.18.21-.37.21H71.6v1.49h6.25l.8-.94s.92.64,1.48,1.1c0,.15-.18.21-.38.21h-6a5.54,5.54,0,0,0,1.73,2.25,18,18,0,0,0,2.19-2.18Z"/><path class="cls-2" d="M96.23,15.29a.73.73,0,0,1-.53.15,11.19,11.19,0,0,1-1.91,2.13l-.15-.11a20.62,20.62,0,0,0,.71-2.26H93.08v5.24c0,.93-.23,1.58-1.85,1.72a1.38,1.38,0,0,0-.33-.94,2.33,2.33,0,0,0-1.31-.47v-.18s1.57.09,1.9.09.31-.07.31-.26V15.2H89.53v.52a1.56,1.56,0,0,1-1,.43h-.2v-.59H87.12v1.86H88l.69-.9s.77.63,1.22,1.07a.32.32,0,0,1-.35.22H87.12v1.78l3-.54,0,.19c-1.28.55-3.14,1.26-5.84,2.18a.57.57,0,0,1-.34.34l-.76-1.54c.58-.07,1.57-.23,2.75-.43v-2h-2.3l-.11-.39h2.41V15.56H84.8v.56c0,.12-.48.36-1,.36h-.17V10.27l1.19.5h3.27l.63-.66,1.28,1L90,10.76h3.91l.78-.71,1.28,1.2a1,1,0,0,1-.56.15,14.33,14.33,0,0,1-2.32,1.48c1.14.9.56,2.09-.36,1.61a5.54,5.54,0,0,0-2.19-2.32l.13-.12a5.78,5.78,0,0,1,2.06.59,16,16,0,0,0,1.11-1.5H90.08a1.23,1.23,0,0,1-.55.24v3.44h4.74l.72-.7ZM84.8,11.16V13h1.13V11.16Zm1.13,4v-1.8H84.8v1.8Zm1.19-4V13h1.16V11.16Zm1.16,4v-1.8H87.12v1.8Z"/><path class="cls-2" d="M99.2,21.69a10.85,10.85,0,0,0,3.34-3.35l1.56.87c-.1.12-.21.19-.53.12a11,11,0,0,1-4.25,2.53Zm11.09-5.14s.93.68,1.49,1.16c0,.15-.18.22-.38.22h-5.21v4a1.61,1.61,0,0,1-1.08.28h-.23V17.93h-3.47v.47c0,.13-.53.37-1,.37h-.23V11l1.74.18c0,.18-.13.32-.49.37v6h8.06Zm-6.1,0c0,.13-.53.42-1.06.42h-.21V10l1.34.57h3.93l.66-.71,1.33,1a.91.91,0,0,1-.56.28v5.33a1.65,1.65,0,0,1-1.09.41h-.2v-.73h-4.14Zm0-5.66v1.35h4.14V10.89ZM108.33,14V12.62h-4.14V14Zm0,1.75V14.36h-4.14v1.36Zm-1,2.82c4.89.87,4.43,3.67,3,3.06a10.85,10.85,0,0,0-3.08-2.94Z"/><path class="cls-2" d="M118.32,15.11c3.06,1,2.05,3.05,1,2.23a5.07,5.07,0,0,0-1-2v6.4c0,.13-.54.39-1,.39h-.28V16.31a10.45,10.45,0,0,1-2.11,2.76l-.18-.16a15,15,0,0,0,2.12-5.56h-1.82L115,13h2.1V9.77l1.76.17c0,.2-.13.33-.49.39V13h.44l.61-.92a15.13,15.13,0,0,1,1.16,1.1c0,.15-.16.21-.35.21h-1.86Zm6.14,2.38c4.24,2.39,3.15,5.46,1.75,4.29a6.85,6.85,0,0,0-.51-1.62c-1.21.37-2.89.81-5.2,1.38a.48.48,0,0,1-.35.3l-.82-1.53,2-.12a47.23,47.23,0,0,0,1.18-5.79l1.92.36c0,.17-.18.32-.5.33a30.37,30.37,0,0,1-2.23,5.07c1.13-.08,2.47-.18,3.88-.3a15.43,15.43,0,0,0-1.29-2.29Zm-4.68-2a14.12,14.12,0,0,0,1.84-5.56l1.84.48c0,.16-.2.28-.5.28a10,10,0,0,1-3,4.92Zm4.82-5.71a8.14,8.14,0,0,0,3.16,4.52l0,.18a1.78,1.78,0,0,0-1.06,1.27,12.23,12.23,0,0,1-2.31-5.85Z"/><path class="cls-2" d="M138,13.31a11.73,11.73,0,0,0,5.6,5.11l0,.15a1.56,1.56,0,0,0-1.2,1.14,11.65,11.65,0,0,1-4.64-6.4v5.62h.76l.75-1s.85.7,1.35,1.21c0,.14-.17.21-.37.21h-2.49v2.45c0,.15-.53.4-1.07.4h-.26V19.32h-2.68l-.11-.39h2.79V14.84a13.16,13.16,0,0,1-5.57,5l-.14-.17a14.21,14.21,0,0,0,4.84-6.36h-4.6l-.1-.39h5.57V9.74l1.89.2c0,.2-.15.36-.56.41v2.57H141l.85-1.08s1,.74,1.51,1.26c0,.15-.19.21-.38.21Z"/><path class="cls-2" d="M146.63,12.83c3.18.42,2.21,2.66,1,1.87a3.71,3.71,0,0,0-1.16-1.76Zm3.82,0c-.5,1.47-1.45,4.18-1.62,4.79a4.4,4.4,0,0,0-.21,1.15,12.83,12.83,0,0,1,.44,2.36,1,1,0,0,1-1,1c-.28,0-.53-.23-.6-.68.24-1.41.15-2.57-.15-2.77a1.25,1.25,0,0,0-.68-.21v-.28h.6c.18,0,.25,0,.4-.25.28-.47.28-.47,2.55-5.21Zm-3-2.94c3.38.36,2.51,2.69,1.27,2A4.9,4.9,0,0,0,147.37,10Zm7.9,7.2a8.43,8.43,0,0,0,4.06,2.93l0,.13a1.42,1.42,0,0,0-1.05,1.14,8,8,0,0,1-3.26-4.08V21.8c0,.13-.55.36-1,.36h-.25V18.41a10.32,10.32,0,0,1-4.16,3.08l-.12-.19a10,10,0,0,0,3.57-4.17h-3l-.11-.39h3.79V15l1.73.17c0,.18-.13.31-.47.36v1.17h2l.75-1s.85.67,1.38,1.15c0,.15-.18.22-.37.22Zm-3.48-6c0,2.27-2.4,1.68-1.49.59a2.07,2.07,0,0,0,1.12-1.74h.21a4.55,4.55,0,0,1,.13.75h5.42L158,10l1.23,1.16c-.1.11-.25.13-.52.15a16.34,16.34,0,0,1-1.54,1.31l-.15-.08.34-1.47h-1.16v2.47c0,.15,0,.2.33.2h1.39a.25.25,0,0,0,.23-.11,5.57,5.57,0,0,0,.39-1h.14l.06,1c.32.13.39.26.39.48,0,.43-.41.64-2,.64h-.94c-1,0-1.15-.24-1.15-1V11.08h-1a5,5,0,0,1-3.76,4.57l-.06-.2a4.79,4.79,0,0,0,2.57-4.37Z"/><path class="cls-2" d="M164.55,17.37c.6,1.82,0,2.95-.75,3.37a.85.85,0,0,1-1.24-.21.77.77,0,0,1,.46-.92,2.51,2.51,0,0,0,1.33-2.24Zm-1.77-5.18H168V9.77l1.86.16c0,.2-.15.33-.53.4v1.86h3.24l.81-1s.9.7,1.44,1.19c0,.14-.17.2-.36.2h-5.13V15H172l.79-1s.92.7,1.48,1.19c0,.15-.17.22-.38.22H163.69l-.11-.39H168V12.56h-5.1ZM172,20.51c.43.14.52.28.52.52,0,.58-.57.78-3.16.78h-1.75c-1.39,0-1.7-.24-1.7-1.16V17l1.7.15c0,.17-.15.29-.42.33v2.89c0,.22.07.27.64.27h3c.21,0,.29-.06.37-.19a8.42,8.42,0,0,0,.56-1.61H172ZM167.4,16c4,.58,3.33,3.31,2,2.6a6,6,0,0,0-2.1-2.49Zm4.49,1.11c4.38,1.31,3.32,4.45,1.9,3.39a6.34,6.34,0,0,0-2-3.28Z"/><path class="cls-2" d="M189.21,10.29s1,.68,1.54,1.18c0,.14-.19.21-.38.21H178.49l-.12-.39h5.47V9.75l1.78.16c0,.19-.13.32-.49.36v1h3.24Zm0,5.31,1.4,1a1,1,0,0,1-.56.26v3.79c0,.86-.21,1.37-1.75,1.5a1.31,1.31,0,0,0-.29-.83,1.91,1.91,0,0,0-1.1-.43v-.18s1.24.08,1.54.08.29-.08.29-.26V16.66h-8.43v5.08c0,.14-.55.42-1.09.42H179V15.72l1.41.55h8.17Zm-2.57.12v-.61h-4.27v.33c0,.11-.58.4-1.11.4h-.18V12.19l1.35.52h4.07l.64-.66,1.36,1a1,1,0,0,1-.55.29V15.4a2.16,2.16,0,0,1-1.1.32Zm.5,4.76a1.63,1.63,0,0,1-1,.37H186v-.66h-2.89v.5a1.43,1.43,0,0,1-1,.37h-.17v-3.8l1.24.49h2.72l.58-.6,1.25.93a1.11,1.11,0,0,1-.51.22Zm-.5-5.76V13.1h-4.27v1.62Zm-.7,5.1V18.14h-2.89v1.68Z"/><path class="cls-2" d="M196.48,11.71a7.34,7.34,0,0,1-2.32,2l-.17-.13a9.78,9.78,0,0,0,2.1-3.81l1.66.62c-.06.15-.24.26-.54.22a5.14,5.14,0,0,1-.45.75h1.87l.66-.83s.73.57,1.16,1c0,.15-.15.22-.34.22h-2.62c1.78.92.73,2.4-.13,1.63a2.93,2.93,0,0,0-.53-1.63Zm8.89,3.36s.79.61,1.28,1.05c0,.15-.17.2-.36.2H194.17l-.11-.37h5.62V14.49H195.5l-.13-.38h4.31v-.84l-.15-.12.15-.2v-.12h.08a11.61,11.61,0,0,0,1.41-3.13l1.71.63a.5.5,0,0,1-.55.23,6.45,6.45,0,0,1-.49.75h2.75l.73-.89s.81.61,1.31,1.06c0,.15-.18.22-.37.22h-3.1c1.79.87.81,2.39-.14,1.64a3.41,3.41,0,0,0-.68-1.64h-.8a8.06,8.06,0,0,1-1.26,1.17l1.05.11c0,.15-.11.26-.38.31v.81h2.73l.7-.88s.81.62,1.3,1.06c0,.13-.17.2-.36.2H201V16h3.71ZM205.11,17s.82.62,1.3,1.07c0,.14-.18.2-.36.2h-2.62v2.36c0,.92-.21,1.46-1.92,1.6a1.31,1.31,0,0,0-.38-.87,2.66,2.66,0,0,0-1.41-.46v-.19s1.76.11,2.1.11.33-.07.33-.27V18.22h-7.57l-.11-.37h7.68V16.4l1.75.16c0,.2-.17.31-.47.35v.94h1ZM197,18.42c3.56.69,2.58,3.26,1.32,2.39a4.3,4.3,0,0,0-1.46-2.29Z"/><path class="cls-2" d="M222.61,13.15c-.11.12-.26.15-.55.16a11.06,11.06,0,0,1-2.14,1.38l-.12-.09c.2-.42.48-1.06.67-1.57h-8.65a2.05,2.05,0,0,1-.75,1.91.75.75,0,0,1-1.15-.16.71.71,0,0,1,.44-.91,2.32,2.32,0,0,0,.9-2.19h.22a4.64,4.64,0,0,1,.3,1h5.95a17.5,17.5,0,0,0,1.47-2.89l1.8.64c-.07.17-.25.25-.55.22a15.52,15.52,0,0,1-2.23,2h2.23l.8-.76ZM221,16.56s.94.73,1.49,1.22c0,.15-.18.22-.39.22h-5.22v2.51c0,1-.25,1.51-2.06,1.67a1.27,1.27,0,0,0-.42-.92,3.14,3.14,0,0,0-1.5-.49v-.19s1.93.13,2.29.13.33-.08.33-.28V18H210l-.1-.39h5.58V16.2l1,.1a15.44,15.44,0,0,0,1.39-1.42h-5.56l-.11-.39h5.84l.77-.71,1.3,1.2c-.11.11-.26.14-.56.17a20.44,20.44,0,0,1-2.47,1.2h.23c0,.19-.16.3-.46.34v.91h3.3Zm-8.95-6.63c3.34.85,2.22,3.26,1,2.37A4.9,4.9,0,0,0,211.91,10Zm3.07-.2c3.22,1.09,1.86,3.43.71,2.4A4.51,4.51,0,0,0,215,9.81Z"/><path class="cls-2" d="M234,13.58c-.08.13-.19.21-.5.16A9.88,9.88,0,0,1,230.75,16c.64.93-.11,1.75-.83,1.16a5.47,5.47,0,0,0-.93-2v6.66c0,.13-.55.39-1,.39h-.26v-5.7a10.52,10.52,0,0,1-2.14,2.63l-.17-.16a13.83,13.83,0,0,0,2.11-5.52h-1.66l-.1-.39h2V9.77l1.76.17c0,.2-.14.33-.49.39V13h.27l.7-.93s.76.65,1.22,1.1c0,.15-.16.22-.35.22H229V14.8a4,4,0,0,1,1.6,1,10.18,10.18,0,0,0,1.85-3Zm3.07,2.21a.46.46,0,0,1-.54.23,8.83,8.83,0,0,1-1.6,3,9.08,9.08,0,0,0,3.61,1.65l0,.17a1.68,1.68,0,0,0-1,1.34,7.82,7.82,0,0,1-3.3-2.4,10.83,10.83,0,0,1-4.48,2.42l-.11-.16a9.8,9.8,0,0,0,4-3.05,11.34,11.34,0,0,1-1.43-3.44l.25-.13a7.41,7.41,0,0,0,1.67,2.86,9.55,9.55,0,0,0,1.22-3ZM230.45,12h3.11V9.85l1.72.14c0,.18-.13.3-.44.35V12h1.49l.75-1s.83.67,1.34,1.14c0,.15-.18.21-.37.21h-7.49Zm4.61,1c4.11.77,3.48,3.34,2.14,2.69a8.46,8.46,0,0,0-2.28-2.59Z"/><path class="cls-3" d="M56.5,7.11a50.23,50.23,0,0,1-9.8,7,3,3,0,0,1-2.47.11c-1.22-.38-2.41-.85-3.62-1.23a1,1,0,0,0-.83.16c-.79.65-1.52,1.38-2.31,2a1,1,0,0,1-.82.16,13.05,13.05,0,0,1-2.25-1.19,2.31,2.31,0,0,1-1-2.6,4.52,4.52,0,0,0-1.28-4.47,3.2,3.2,0,0,0-1-.65c2.09,1.74,2.73,3.79,1.52,6.42.59.51,1.26,1.06,1.88,1.67a1.4,1.4,0,0,1,.4.88,2,2,0,0,0,1.27,2.29,1.26,1.26,0,0,1,.8,1.36,11.05,11.05,0,0,0,0,1.64H34.16v7.84H37v8.72c1.17-.53,1.69-1.93,3.29-1.83-.85.79-1.59,1.5-2.34,2.19a.41.41,0,0,1-.27.1l-3.48-.46V31H21v6.33H18.2V28.54h2.22c.34,0,.58,0,.58-.47,0-2.38,0-4.76,0-7.13,0-.05,0-.09-.11-.23h-2.7c0-.78,0-1.47,0-2.17,0-.07,0-.18.05-.21,1.23-.89.7-1.92.24-2.95-.1-.23-.2-.45-.35-.77a6.13,6.13,0,0,0,3.44-2.39,3.17,3.17,0,0,0-.76.06c-2.3.78-4.6,1.54-6.88,2.37a4,4,0,0,1-3.59-.31C7.19,12.58,4.05,10.88.92,9.15a3.42,3.42,0,0,1-.51-.33c-.53-.43-.56-.91,0-1.3a3.85,3.85,0,0,1,3.35-.9c1.19.28,2.41.41,3.61.61l.1-.2c-.18-.13-.37-.25-.54-.39C5.17,5.3,3.41,4,1.69,2.59,1.32,2.29.76,2,1.08,1.3A2.16,2.16,0,0,1,2.93.38a5.85,5.85,0,0,1,.92.31A33.9,33.9,0,0,0,14.45,3a12.37,12.37,0,0,0,3.32-.5,30.18,30.18,0,0,0,3-.7,2.61,2.61,0,0,1,2.72.57c.49.46,1,.91,1.49,1.36,1.3-1.21,1.71-1.24,2.68-.15a1.89,1.89,0,0,1,2.1-.71c.12,0,.35-.15.46-.28a2.93,2.93,0,0,1,3.43-1.1A30.28,30.28,0,0,0,42.45,2,36.23,36.23,0,0,0,51.37.83c.72-.22,1.41-.51,2.12-.76A2.21,2.21,0,0,1,55.81,1a1.17,1.17,0,0,1-.34,1C54,3.25,52.38,4.49,50.82,5.74c-.19.15-.39.27-.59.41,0,.06,0,.13.05.19a30.73,30.73,0,0,0,3.6-.4,2.29,2.29,0,0,1,2.62.87Zm-55-5.47a4.22,4.22,0,0,0,.5.53c3,2.19,6,4.39,9,6.51a2.42,2.42,0,0,0,1.57.17c1.69-.24,3.37-.49,5-.87,2-.46,4.09-.22,6-1.23a1.23,1.23,0,0,0,.32-1.92,5.59,5.59,0,0,0-4.11-1.52A37.22,37.22,0,0,1,14,3.44,33.77,33.77,0,0,1,3.6,1.13C2.56.68,2.34.75,1.47,1.64Zm53.65-.31V1.05c-.47-.11-1-.42-1.4-.27A30.81,30.81,0,0,1,43.45,2.62c-2.17.11-4.34.32-6.51.44a27.24,27.24,0,0,1-3.13,0,3.57,3.57,0,0,0-2.54.67.67.67,0,0,0-.23.53c.06.46.19.91.3,1.39a4.33,4.33,0,0,1,3.26.48,5.7,5.7,0,0,0,1,.37c2.28.45,4.57.85,6.85,1.31A6,6,0,0,0,47,7.11c.27-.17.57-.31.86-.46A29.7,29.7,0,0,0,55.12,1.33ZM21.86,7.88l-.65,0c-2.76.46-5.54.87-8.29,1.39a3.46,3.46,0,0,1-3-.6C9.6,8.45,9.21,8.21,8.83,8a1.79,1.79,0,0,0-.61-.25l-5-.67A3.49,3.49,0,0,0,.43,8.17a5.78,5.78,0,0,0,.66.49c3.3,1.83,6.6,3.67,9.92,5.48a3,3,0,0,0,2.54.1c2.33-.83,4.67-1.62,7-2.43.16-.05.31-.12.52-.21A3.56,3.56,0,0,1,21.86,7.88Zm15-.53a2.21,2.21,0,0,0,.23.33,9.55,9.55,0,0,1,3.19,4.08.63.63,0,0,0,.36.32c1.32.48,2.63.95,4,1.39a2.44,2.44,0,0,0,2.08-.25A57.53,57.53,0,0,0,55,7.44c.17-.14.35-.27.53-.4,0-.09-.05-.18-.08-.28-.33,0-.66-.07-1,0-1.55.12-3.09.33-4.63.36a3.79,3.79,0,0,0-2.19.54,7,7,0,0,1-5.83.76C40.19,8,38.59,7.71,36.84,7.35ZM25.3,13.44c-.67.7-1.29,1.32-1.88,2a.69.69,0,0,0-.2.55c.2.55.46,1.08.72,1.67l-.7-.26-.63.8h3.74v-2h2.82v2h2.76l-.43-.68-.78.52a3.3,3.3,0,0,1,.36-1c.21-.53.55-1.11,0-1.64s-1.33-1.28-2-1.94A2.92,2.92,0,0,1,25.3,13.44ZM25,7A3.93,3.93,0,0,0,21.5,9.81a2.28,2.28,0,0,0,1.42,2.71,1.3,1.3,0,0,0,1.65-.74c.39-.91.91-1.76,1.26-2.67a2.35,2.35,0,0,0,.09-1.48C25.83,7.34,25.29,7.19,25,7Zm7.72,3.62A4,4,0,0,0,30.42,7,2,2,0,0,0,28,7.44c-.35.56-.06,1.08.7,1.91a7.88,7.88,0,0,1,1.47,2.28c.27.68.75.75,1.26.83s.89-.28,1.05-.77A9.56,9.56,0,0,0,32.68,10.6ZM31.13,27.28h-7v1.26h6.06C31.33,28.54,31.34,28.53,31.13,27.28Zm-7-5.5H30.2c1.14,0,1.19-.06.89-1.23h-7ZM31.18,24H24.11v1.11h7.07Zm-9-11.11-3,2.31c.16.63.38,1.51.56,2.21l-1,.75c1.55.22,1.63.25,2-1a4.22,4.22,0,0,0-.08-1.86.67.67,0,0,1,.36-.85c.61-.36,1.18-.78,1.86-1.24ZM20.7,18.12c1.61.3,1.81.17,2-1.55a2.44,2.44,0,0,0-.1-.89c-.15-.46,0-.71.42-.95a3.33,3.33,0,0,0,1.67-1.91,5.62,5.62,0,0,0-1.58.81,21.18,21.18,0,0,0-1.69,1.79c.09.54.21,1.24.29,1.7Zm12-.43c0-.89.08-1.7.1-2.23-.62-.65-1.33-1.09-1.52-1.68s-.62-.9-1.31-1a2.84,2.84,0,0,0,2.1,2.45,3.19,3.19,0,0,0,.23,3H34l-.7-.73Zm2,0c-.13-.67-.3-1.57-.51-2.45a1.33,1.33,0,0,0-.36-.51c-.47-.5-.94-1-1.42-1.5a1.62,1.62,0,0,0-.39-.21c-.06.16-.21.4-.16.46a3.62,3.62,0,0,0,1,1,1.1,1.1,0,0,1,.68,1.45A1.68,1.68,0,0,0,35.85,18ZM19,2.88a6.73,6.73,0,0,1,5.55,1.73,1.08,1.08,0,0,0-.16-.74C23,2,21.21,1.72,19,2.88Zm17.9-.27s0-.07,0-.11c-1.21-.2-2.42-.36-3.61-.61a2.13,2.13,0,0,0-2.6.93,1.53,1.53,0,0,0-.12.51,2,2,0,0,0,.51-.11,4.34,4.34,0,0,1,3.15-.63A18.43,18.43,0,0,0,36.88,2.61Zm-7.8,8.25.14-.21L26.85,8.77,25.5,10.71A3.33,3.33,0,0,1,29.08,10.86ZM29,12.2a3.56,3.56,0,0,0-3.64.1A4,4,0,0,0,29,12.2Zm.23-.47c-1-1.42-2.72-1.39-3.94.11A4.58,4.58,0,0,1,29.19,11.73Zm-3.77,1.19c1.1,1.14,2.94,1,3.54,0Z"/><path class="cls-1" d="M22.07,37.32V32.1H33v5.19H25.36a1.1,1.1,0,0,1,0,.18c.94.3,1.87.64,2.82.87a1.7,1.7,0,0,1,1.49,1.52A8,8,0,0,1,26,39.48c-.19-.06-.38-.4-.44-.64a1.8,1.8,0,0,0-2.38-1.53A5.78,5.78,0,0,1,22.07,37.32Zm8.81-1.88V34.05H24.56v1.39Z"/><g class="cls-4"><path class="cls-5" d="M22.07,37.32a5.78,5.78,0,0,0,1.11,0,1.8,1.8,0,0,1,2.38,1.53c.06.24.25.58.44.64a8,8,0,0,0,3.65.38,1.7,1.7,0,0,0-1.49-1.52c-.95-.23-1.88-.57-2.82-.87a1.1,1.1,0,0,0,0-.18H33V32.1H22.07ZM37.58,15.5l1.32,5.33c.62-.74,1.16-1.36,1.67-2a.61.61,0,0,0,.15-.46c-.47-1.41-1-2.81-1.49-4.3ZM40.45,13c-.27.52-1.1.49-.82,1.26.46,1.3.91,2.6,1.4,3.88a.81.81,0,0,0,.48.48,14.34,14.34,0,0,0,1.61.21A16.07,16.07,0,0,0,40.45,13ZM41,19c-.48.55-.85.92-1.15,1.34a1.2,1.2,0,0,0-.27.79c.17,1.06.41,2.12.65,3.28.56-.54,1.07-1,1.55-1.5a.67.67,0,0,0,.14-.53C41.61,21.27,41.3,20.21,41,19Zm-.33,9.33c.59-.45,1.15-.86,1.69-1.28a.53.53,0,0,0,.2-.37c-.11-1.17-.24-2.33-.39-3.69-.62.53-1.07.88-1.48,1.28a.84.84,0,0,0-.2.58C40.49,25.93,40.56,27.05,40.63,28.3Zm.88,8.8c.63-1.12,1.28-2.24,1.88-3.37a.86.86,0,0,0,0-.72,9.19,9.19,0,0,0-.87-1.16,10.33,10.33,0,0,1-1,2.12C40.66,35,41,36,41.51,37.1Zm3.24-8.34c-.31-1.56-.6-2.94-.84-4.32-.19-1.08-.25-1.15-1.34-1,.11,1.19.21,2.37.32,3.56a.63.63,0,0,0,.19.38C43.58,27.8,44.09,28.22,44.75,28.76ZM40.16,32c.63-.28,1.21-.52,1.76-.79a.64.64,0,0,0,.33-.43c.13-1.07.21-2.15.31-3.22l-.22-.12c-.5.49-1.21.88-1.46,1.47A17.54,17.54,0,0,0,40.16,32Zm3.54.9.21,0c.12-.86.18-1.74.38-2.59.3-1.27-.4-1.91-1.38-2.48-.12,1.13-.24,2.21-.34,3.3a.71.71,0,0,0,.13.41C43,32,43.37,32.42,43.7,32.88ZM41.33,19c.25.86.51,1.72.73,2.58.35,1.31.35,1.32,1.87,1.46-.24-1-.46-2-.72-2.91C42.88,18.93,42.72,18.85,41.33,19ZM25,41.47c1.12,0,2.12-.06,3.11,0a1.2,1.2,0,0,0,1.44-1.11c-1.14-.16-2.26-.34-3.39-.48a.56.56,0,0,0-.46.21C25.45,40.53,25.25,41,25,41.47Zm13.24-1.82c.9-.8,1.71-1.53,2.5-2.28a.59.59,0,0,0,.15-.5c-.09-.42-.23-.84-.3-1.07a17.86,17.86,0,0,1-1.69,1.39,1.66,1.66,0,0,0-.75,2.14Zm-4.12-.11-3.27.52a1.45,1.45,0,0,0-1.29,1.6c1.12-.27,2.22-.59,3.34-.79A1.31,1.31,0,0,0,34.13,39.54Zm0,1.52L36.76,40c1.16-.46,1.16-.46.9-1.73a25.75,25.75,0,0,1-2.45.89c-.57.15-.87.41-.91,1C34.28,40.41,34.21,40.67,34.15,41.06Zm4.66-5.7C40.73,35,41.62,34,42,31.69c-.6.3-1.28.42-1.57.82A25.07,25.07,0,0,0,38.81,35.36Zm-5.1,3.9,0-.18c-.25-.15-.48-.41-.74-.43-1.22-.1-2.45-.13-3.7-.19.16.31.31.65.51,1,.11.16.33.38.47.36C31.43,39.64,32.57,39.44,33.71,39.26Zm3.66-1.2c-.79-.47-2.82-.28-4.17.34.54.23,1,.63,1.4.56A20.55,20.55,0,0,0,37.37,38.06Z"/></g><path class="cls-6" d="M37.58,15.5l1.65-1.43c.52,1.49,1,2.89,1.49,4.3a.61.61,0,0,1-.15.46c-.51.64-1,1.26-1.67,2Z"/><path class="cls-7" d="M40.45,13a16.07,16.07,0,0,1,2.67,5.83,14.34,14.34,0,0,1-1.61-.21.81.81,0,0,1-.48-.48c-.49-1.28-.94-2.58-1.4-3.88C39.35,13.46,40.18,13.49,40.45,13Z"/><path class="cls-8" d="M41,19c.34,1.24.65,2.3.92,3.38a.67.67,0,0,1-.14.53c-.48.5-1,1-1.55,1.5-.24-1.16-.48-2.22-.65-3.28a1.2,1.2,0,0,1,.27-.79C40.11,19.89,40.48,19.52,41,19Z"/><path class="cls-9" d="M40.63,28.3c-.07-1.25-.14-2.37-.18-3.48a.84.84,0,0,1,.2-.58c.41-.4.86-.75,1.48-1.28.15,1.36.28,2.52.39,3.69a.53.53,0,0,1-.2.37C41.78,27.44,41.22,27.85,40.63,28.3Z"/><path class="cls-10" d="M41.51,37.1C41,36,40.66,35,41.49,34a10.33,10.33,0,0,0,1-2.12A9.19,9.19,0,0,1,43.36,33a.86.86,0,0,1,0,.72C42.79,34.86,42.14,36,41.51,37.1Z"/><path class="cls-11" d="M44.75,28.76c-.66-.54-1.17-1-1.67-1.4a.63.63,0,0,1-.19-.38c-.11-1.19-.21-2.37-.32-3.56,1.09-.13,1.15-.06,1.34,1C44.15,25.82,44.44,27.2,44.75,28.76Z"/><path class="cls-12" d="M40.16,32a17.54,17.54,0,0,1,.72-3.09c.25-.59,1-1,1.46-1.47l.22.12c-.1,1.07-.18,2.15-.31,3.22a.64.64,0,0,1-.33.43C41.37,31.46,40.79,31.7,40.16,32Z"/><path class="cls-13" d="M43.7,32.88c-.33-.46-.67-.92-1-1.39a.71.71,0,0,1-.13-.41c.1-1.09.22-2.17.34-3.3,1,.57,1.68,1.21,1.38,2.48-.2.85-.26,1.73-.38,2.59Z"/><path class="cls-14" d="M41.33,19c1.39-.18,1.55-.1,1.88,1.13.26.95.48,1.92.72,2.91-1.52-.14-1.52-.15-1.87-1.46C41.84,20.75,41.58,19.89,41.33,19Z"/><path class="cls-15" d="M25,41.47c.24-.49.44-.94.7-1.36a.56.56,0,0,1,.46-.21c1.13.14,2.25.32,3.39.48a1.2,1.2,0,0,1-1.44,1.11C27.13,41.41,26.13,41.47,25,41.47Z"/><path class="cls-16" d="M38.25,39.65l-.09-.32a1.66,1.66,0,0,1,.75-2.14A17.86,17.86,0,0,0,40.6,35.8c.07.23.21.65.3,1.07a.59.59,0,0,1-.15.5C40,38.12,39.15,38.85,38.25,39.65Z"/><path class="cls-17" d="M34.13,39.54a1.31,1.31,0,0,1-1.22,1.33c-1.12.2-2.22.52-3.34.79a1.45,1.45,0,0,1,1.29-1.6Z"/><path class="cls-18" d="M34.15,41.06c.06-.39.13-.65.15-.92,0-.57.34-.83.91-1a25.75,25.75,0,0,0,2.45-.89c.26,1.27.26,1.27-.9,1.73Z"/><path class="cls-19" d="M38.81,35.36a25.07,25.07,0,0,1,1.59-2.85c.29-.4,1-.52,1.57-.82C41.62,34,40.73,35,38.81,35.36Z"/><path class="cls-20" d="M33.71,39.26c-1.14.18-2.28.38-3.43.52-.14,0-.36-.2-.47-.36-.2-.31-.35-.65-.51-1,1.25.06,2.48.09,3.7.19.26,0,.49.28.74.43Z"/><path class="cls-21" d="M37.37,38.06a20.55,20.55,0,0,1-2.77.9c-.39.07-.86-.33-1.4-.56C34.55,37.78,36.58,37.59,37.37,38.06Z"/><path class="cls-22" d="M8.74,3.67a2.9,2.9,0,0,1-2.44.06A.76.76,0,0,1,6,3.22c0-.08.2-.29.33-.31A3.11,3.11,0,0,1,8.74,3.67Z"/><path class="cls-23" d="M51.58,2.16a15.78,15.78,0,0,1-1.87,1.19,1.85,1.85,0,0,1-1.05-.09,1,1,0,0,1,0-.57c.81-.29,1.64-.55,2.46-.8C51.16,1.87,51.29,2,51.58,2.16Z"/><path class="cls-24" d="M6.17,7.63a16.61,16.61,0,0,1,1.9.51c.22.08.33.44.48.67A2.33,2.33,0,0,1,7.77,9a7.37,7.37,0,0,1-1.61-.3,2.67,2.67,0,0,1-.74-.58Z"/><path class="cls-25" d="M51.79,7.36c-.61,1.16-1.58,1.42-2.4.81-.14-.1-.31-.33-.28-.46a.58.58,0,0,1,.42-.34C50.24,7.34,51,7.36,51.79,7.36Z"/><path class="cls-2" d="M83.08,29.66c0,.68,0,1.37,0,2.08v.39c0,.69,0,1.38,0,2.08l.75.07v.23h-2v-.23l.72-.07c0-.68,0-1.38,0-2V30l-1.83,4.54h-.24L78.59,30l0,1.71v2.53l.7.09v.23H77.65v-.23l.7-.09V29.66l-.73-.08v-.22h1.25l1.84,4.46,1.79-4.46h1.33v.22Z"/><path class="cls-2" d="M89.84,34.28v.23h-2v-.23l.8-.07-.49-1.47H86.3l-.47,1.46.73.08v.23H84.91v-.23l.62-.07,1.64-4.89h.34l1.66,4.9Zm-1.79-1.79L87.21,30l-.82,2.53Z"/><path class="cls-2" d="M93.08,29.63c0,.69,0,1.39,0,2.11v.39c0,.69,0,1.38,0,2.08l.83.07v.23h-2.2v-.23l.82-.07c0-.68,0-1.38,0-2.08v-.39c0-.71,0-1.41,0-2.11H91.16L91,30.69h-.31l.06-1.33h4.15L95,30.69h-.31l-.18-1.06Z"/><path class="cls-2" d="M97.91,31.66c1.06.42,1.4.83,1.4,1.54,0,.87-.73,1.41-1.75,1.41a2.84,2.84,0,0,1-1.46-.4l0-1h.31l.14.92a1.75,1.75,0,0,0,1,.24c.77,0,1.31-.35,1.31-1,0-.52-.28-.78-1.07-1.11l-.29-.11c-.8-.31-1.26-.76-1.26-1.47,0-.89.73-1.36,1.61-1.36a2.06,2.06,0,0,1,1.24.39l0,1h-.31l-.15-.89a1.35,1.35,0,0,0-.75-.19c-.66,0-1.14.32-1.14.95s.34.83.92,1.06Z"/><path class="cls-2" d="M105.59,29.58l-.68.09v2.82c0,1.47-.67,2.12-1.77,2.12s-1.81-.59-1.81-2v-.83c0-.7,0-1.41,0-2.1l-.68-.07v-.22h2v.22l-.8.08c0,.68,0,1.38,0,2.09v.68c0,1.33.53,1.79,1.36,1.79s1.42-.53,1.42-1.92V29.68l-.86-.1v-.22h1.83Z"/><path class="cls-2" d="M112.27,29.66c0,.68,0,1.37,0,2.08v.39c0,.69,0,1.38,0,2.08l.75.07v.23h-2v-.23l.72-.07c0-.68,0-1.38,0-2V30l-1.83,4.54h-.25L107.78,30l0,1.71v2.53l.7.09v.23h-1.69v-.23l.7-.09V29.66l-.73-.08v-.22h1.25l1.84,4.46,1.79-4.46H113v.22Z"/><path class="cls-2" d="M119,31.93a2.43,2.43,0,0,1-2.29,2.68,2.4,2.4,0,0,1-2.29-2.68,2.32,2.32,0,1,1,4.58,0Zm-2.29,2.41c1.13,0,1.7-1.15,1.7-2.41s-.57-2.4-1.7-2.4-1.7,1.15-1.7,2.4S115.61,34.34,116.74,34.34Z"/><path class="cls-2" d="M122.63,29.63c0,.69,0,1.39,0,2.11v.39c0,.69,0,1.38,0,2.08l.83.07v.23h-2.2v-.23l.82-.07c0-.68,0-1.38,0-2.08v-.39c0-.71,0-1.41,0-2.11h-1.37l-.18,1.06h-.31l.06-1.33h4.15l.07,1.33h-.31L124,29.63Z"/><path class="cls-2" d="M130.29,31.93a2.43,2.43,0,0,1-2.3,2.68,2.4,2.4,0,0,1-2.29-2.68,2.32,2.32,0,1,1,4.59,0ZM128,34.34c1.14,0,1.7-1.15,1.7-2.41s-.56-2.4-1.7-2.4-1.7,1.15-1.7,2.4S126.87,34.34,128,34.34Z"/><path class="cls-2" d="M135.46,29.63c0,.68,0,1.38,0,2.13h1.32l.1-.75h.25v1.8h-.25l-.1-.79h-1.32c0,.8,0,1.5,0,2.19l.78.07v.23h-2.09v-.23l.76-.07c0-.68,0-1.38,0-2.08v-.39c0-.7,0-1.4,0-2.08l-.76-.08v-.22h3.75l0,1.29h-.31l-.17-1Z"/><path class="cls-2" d="M144.13,29.58l-.68.09v2.82c0,1.47-.67,2.12-1.78,2.12s-1.8-.59-1.8-2v-.83c0-.7,0-1.41,0-2.1l-.67-.07v-.22h2v.22l-.8.08c0,.68,0,1.38,0,2.09v.68c0,1.33.53,1.79,1.36,1.79s1.43-.53,1.43-1.92V29.68l-.86-.1v-.22h1.83Z"/><path class="cls-2" d="M150.15,34.28v.23h-1.88v-.23l.69-.07-1.38-2.47-.88,1.06c0,.39,0,.88,0,1.41l.77.07v.23h-2.06v-.23l.76-.07c0-.68,0-1.38,0-2.08v-.39c0-.7,0-1.4,0-2.08l-.76-.08v-.22h2.06v.22l-.77.08c0,.68,0,1.37,0,2.08v.68L149,29.68l-.71-.1v-.22H150v.22l-.67.09-1.42,1.69,1.61,2.85Z"/><path class="cls-2" d="M155.77,34.28v.23h-2v-.23l.8-.07-.49-1.47h-1.83l-.48,1.46.73.08v.23h-1.65v-.23l.62-.07,1.64-4.89h.34l1.66,4.9ZM154,32.49,153.14,30l-.82,2.53Z"/><path class="cls-2" d="M158.62,31.66c1.06.42,1.4.83,1.4,1.54,0,.87-.73,1.41-1.75,1.41a2.84,2.84,0,0,1-1.46-.4l0-1h.31l.14.92a1.75,1.75,0,0,0,.95.24c.77,0,1.3-.35,1.3-1,0-.52-.27-.78-1.06-1.11l-.29-.11c-.8-.31-1.27-.76-1.27-1.47,0-.89.73-1.36,1.62-1.36a2.06,2.06,0,0,1,1.24.39l0,1h-.31l-.15-.89a1.35,1.35,0,0,0-.75-.19c-.66,0-1.14.32-1.14.95s.34.83.92,1.06Z"/><path class="cls-2" d="M165.92,29.66c0,.68,0,1.37,0,2.08v.39c0,.69,0,1.38,0,2.08l.75.07v.23h-2v-.23l.75-.07c0-.67,0-1.38,0-2.25h-2.72c0,.86,0,1.57,0,2.25l.76.07v.23h-2.05v-.23l.75-.07c0-.68,0-1.38,0-2.08v-.39c0-.7,0-1.4,0-2.08l-.75-.08v-.22h2.05v.22l-.76.08c0,.67,0,1.35,0,2h2.72c0-.69,0-1.37,0-2l-.75-.08v-.22h2v.22Z"/><path class="cls-2" d="M169.37,29.66c0,.68,0,1.37,0,2.08v.39c0,.69,0,1.38,0,2.08l.75.07v.23h-2.05v-.23l.75-.07c0-.68,0-1.38,0-2.08v-.39c0-.7,0-1.4,0-2.08l-.75-.08v-.22h2.05v.22Z"/><path class="cls-2" d="M178.5,29.66c0,.68,0,1.37,0,2.08v.39c0,.69,0,1.38,0,2.08l.75.07v.23H177.2v-.23l.75-.07c0-.67,0-1.38,0-2.25h-2.71c0,.86,0,1.57,0,2.25l.76.07v.23H174v-.23l.76-.07c0-.68,0-1.38,0-2.08v-.39c0-.7,0-1.4,0-2.08l-.76-.08v-.22H176v.22l-.76.08c0,.67,0,1.35,0,2H178c0-.69,0-1.37,0-2l-.75-.08v-.22h2.05v.22Z"/><path class="cls-2" d="M182,29.66c0,.68,0,1.37,0,2.08v.39c0,.69,0,1.38,0,2.08l.75.07v.23h-2v-.23l.75-.07c0-.68,0-1.38,0-2.08v-.39c0-.7,0-1.4,0-2.08l-.75-.08v-.22h2v.22Z"/><path class="cls-2" d="M188.84,32.3l-.51,0c0,.45,0,.93,0,1.46v.35a3.14,3.14,0,0,1-1.65.46,2.49,2.49,0,0,1-2.55-2.68,2.53,2.53,0,0,1,2.57-2.69,2.76,2.76,0,0,1,1.54.42l0,1.09h-.34l-.16-.95a1.8,1.8,0,0,0-1-.27c-1.2,0-2,.9-2,2.4s.79,2.4,2,2.4a2.26,2.26,0,0,0,1.06-.24V33.8c0-.48,0-1,0-1.45l-.85-.05v-.24h1.9Z"/><path class="cls-2" d="M194.47,29.66v4.55l.76.07v.23h-2v-.23l.75-.07c0-.67,0-1.38,0-2.25h-2.71c0,.86,0,1.57,0,2.25l.76.07v.23h-2.06v-.23l.76-.07c0-.68,0-1.38,0-2.08v-.39c0-.7,0-1.4,0-2.08l-.76-.08v-.22H192v.22l-.76.08c0,.67,0,1.35,0,2h2.71c0-.69,0-1.37,0-2l-.75-.08v-.22h2v.22Z"/><path class="cls-2" d="M198.42,31.66c1.06.42,1.4.83,1.4,1.54,0,.87-.74,1.41-1.76,1.41a2.87,2.87,0,0,1-1.46-.4l.05-1H197l.14.92a1.73,1.73,0,0,0,.94.24c.77,0,1.31-.35,1.31-1,0-.52-.28-.78-1.06-1.11l-.29-.11c-.8-.31-1.27-.76-1.27-1.47,0-.89.73-1.36,1.61-1.36a2,2,0,0,1,1.24.39l0,1h-.31l-.15-.89a1.38,1.38,0,0,0-.75-.19c-.66,0-1.14.32-1.14.95s.34.83.91,1.06Z"/><path class="cls-2" d="M205.31,33.12l0,1.11a2.9,2.9,0,0,1-1.51.38,2.49,2.49,0,0,1-2.56-2.68,2.54,2.54,0,0,1,2.56-2.69,2.69,2.69,0,0,1,1.45.39l0,1.1h-.34l-.17-1a1.72,1.72,0,0,0-.91-.24c-1.17,0-2,.88-2,2.4s.83,2.41,2,2.41a2.21,2.21,0,0,0,1-.24l.16-1Z"/><path class="cls-2" d="M211.22,29.66c0,.68,0,1.37,0,2.08v.39c0,.69,0,1.38,0,2.08l.76.07v.23h-2.06v-.23l.75-.07c0-.67,0-1.38,0-2.25H208v2.25l.76.07v.23h-2.05v-.23l.75-.07c0-.68,0-1.38,0-2.08v-.39c0-.7,0-1.4,0-2.08l-.75-.08v-.22h2.05v.22l-.76.08v2h2.71c0-.69,0-1.37,0-2l-.75-.08v-.22H212v.22Z"/><path class="cls-2" d="M218,31.93a2.43,2.43,0,0,1-2.3,2.68,2.4,2.4,0,0,1-2.29-2.68,2.32,2.32,0,1,1,4.59,0Zm-2.3,2.41c1.14,0,1.7-1.15,1.7-2.41s-.56-2.4-1.7-2.4-1.7,1.15-1.7,2.4S214.57,34.34,215.69,34.34Z"/><path class="cls-2" d="M224,31.93a2.43,2.43,0,0,1-2.3,2.68,2.4,2.4,0,0,1-2.29-2.68,2.32,2.32,0,1,1,4.59,0Zm-2.3,2.41c1.13,0,1.7-1.15,1.7-2.41s-.57-2.4-1.7-2.4-1.7,1.15-1.7,2.4S220.6,34.34,221.72,34.34Z"/><path class="cls-2" d="M229.21,33.14l-.07,1.37h-3.71v-.23l.76-.07c0-.7,0-1.39,0-2.07v-.4c0-.71,0-1.4,0-2.08l-.76-.08v-.22h2v.22l-.75.08c0,.68,0,1.39,0,2.18v.43c0,.59,0,1.27,0,1.95h2l.21-1.08Z"/></g></g></svg>