<?xml version="1.0" encoding="UTF-8" standalone="no"?>
<!-- Created with Inkscape (http://www.inkscape.org/) -->

<svg
   width="60mm"
   height="180mm"
   viewBox="0 0 60 180"
   version="1.1"
   id="svg5"
   xml:space="preserve"
   inkscape:version="1.2.2 (b0a8486541, 2022-12-01)"
   sodipodi:docname="nobori.svg"
   xmlns:inkscape="http://www.inkscape.org/namespaces/inkscape"
   xmlns:sodipodi="http://sodipodi.sourceforge.net/DTD/sodipodi-0.dtd"
   xmlns:xlink="http://www.w3.org/1999/xlink"
   xmlns="http://www.w3.org/2000/svg"
   xmlns:svg="http://www.w3.org/2000/svg"><sodipodi:namedview
     id="namedview7"
     pagecolor="#3a2c25"
     bordercolor="#eeeeee"
     borderopacity="1"
     inkscape:showpageshadow="0"
     inkscape:pageopacity="1"
     inkscape:pagecheckerboard="0"
     inkscape:deskcolor="#505050"
     inkscape:document-units="mm"
     showgrid="false"
     inkscape:zoom="2.7669191"
     inkscape:cx="148.35996"
     inkscape:cy="237.26751"
     inkscape:window-width="1920"
     inkscape:window-height="1122"
     inkscape:window-x="0"
     inkscape:window-y="0"
     inkscape:window-maximized="1"
     inkscape:current-layer="layer1" /><defs
     id="defs2"><linearGradient
       inkscape:collect="always"
       id="linearGradient3497"><stop
         style="stop-color:#985200;stop-opacity:1;"
         offset="0"
         id="stop3493" /><stop
         style="stop-color:#919000;stop-opacity:1;"
         offset="1"
         id="stop3495" /></linearGradient><style
       id="style553">.cls-1{fill:url(#名称未設定グラデーション_17);}.cls-2{fill:none;}.cls-3{fill:#7e6f5a;}.cls-4{fill:url(#名称未設定グラデーション_17-2);}.cls-5{clip-path:url(#clip-path);}.cls-6{fill:url(#名称未設定グラデーション_17-4);}.cls-7{fill:url(#名称未設定グラデーション_17-5);}.cls-8{fill:url(#名称未設定グラデーション_17-6);}.cls-9{fill:url(#名称未設定グラデーション_17-7);}.cls-10{fill:url(#名称未設定グラデーション_17-8);}.cls-11{fill:url(#名称未設定グラデーション_17-9);}.cls-12{fill:url(#名称未設定グラデーション_17-10);}.cls-13{fill:url(#名称未設定グラデーション_17-11);}.cls-14{fill:url(#名称未設定グラデーション_17-12);}.cls-15{fill:url(#名称未設定グラデーション_17-13);}.cls-16{fill:url(#名称未設定グラデーション_17-14);}.cls-17{fill:url(#名称未設定グラデーション_17-15);}.cls-18{fill:url(#名称未設定グラデーション_17-16);}.cls-19{fill:url(#名称未設定グラデーション_17-17);}.cls-20{fill:url(#名称未設定グラデーション_17-18);}.cls-21{fill:url(#名称未設定グラデーション_17-19);}.cls-22{fill:url(#名称未設定グラデーション_17-20);}.cls-23{fill:url(#名称未設定グラデーション_17-21);}.cls-24{fill:url(#名称未設定グラデーション_17-22);}.cls-25{fill:url(#名称未設定グラデーション_17-23);}.cls-26{fill:url(#名称未設定グラデーション_17-24);}.cls-27{clip-path:url(#clip-path-2);}</style><linearGradient
       id="名称未設定グラデーション_17"
       x1="47.66"
       y1="6.25"
       x2="47.66"
       y2="92.18"
       gradientUnits="userSpaceOnUse"><stop
         offset="0"
         stop-color="#240002"
         id="stop555" /><stop
         offset="1"
         stop-color="#793f43"
         id="stop557" /></linearGradient><linearGradient
       id="名称未設定グラデーション_17-2"
       x1="48.91"
       y1="6.25"
       x2="48.91"
       y2="92.18"
       xlink:href="#%E5%90%8D%E7%A7%B0%E6%9C%AA%E8%A8%AD%E5%AE%9A%E3%82%B0%E3%83%A9%E3%83%87%E3%83%BC%E3%82%B7%E3%83%A7%E3%83%B3_17"
       gradientTransform="matrix(4.6929259,0,0,4.6929259,40.13394,61.297013)" /><linearGradient
       id="名称未設定グラデーション_17-4"
       x1="57.84"
       y1="6.25"
       x2="57.84"
       y2="92.18"
       xlink:href="#%E5%90%8D%E7%A7%B0%E6%9C%AA%E8%A8%AD%E5%AE%9A%E3%82%B0%E3%83%A9%E3%83%87%E3%83%BC%E3%82%B7%E3%83%A7%E3%83%B3_17"
       gradientTransform="matrix(4.6929259,0,0,4.6929259,40.13394,61.297013)" /><linearGradient
       id="名称未設定グラデーション_17-5"
       x1="67.790001"
       y1="6.25"
       x2="67.790001"
       y2="92.18"
       xlink:href="#%E5%90%8D%E7%A7%B0%E6%9C%AA%E8%A8%AD%E5%AE%9A%E3%82%B0%E3%83%A9%E3%83%87%E3%83%BC%E3%82%B7%E3%83%A7%E3%83%B3_17"
       gradientTransform="matrix(4.6929259,0,0,4.6929259,40.13394,61.297013)" /><linearGradient
       id="名称未設定グラデーション_17-6"
       x1="71.589996"
       y1="6.25"
       x2="71.589996"
       y2="92.18"
       xlink:href="#%E5%90%8D%E7%A7%B0%E6%9C%AA%E8%A8%AD%E5%AE%9A%E3%82%B0%E3%83%A9%E3%83%87%E3%83%BC%E3%82%B7%E3%83%A7%E3%83%B3_17"
       gradientTransform="matrix(4.6929259,0,0,4.6929259,40.13394,61.297013)" /><linearGradient
       id="名称未設定グラデーション_17-7"
       x1="70.489998"
       y1="6.25"
       x2="70.489998"
       y2="92.18"
       xlink:href="#%E5%90%8D%E7%A7%B0%E6%9C%AA%E8%A8%AD%E5%AE%9A%E3%82%B0%E3%83%A9%E3%83%87%E3%83%BC%E3%82%B7%E3%83%A7%E3%83%B3_17"
       gradientTransform="matrix(4.6929259,0,0,4.6929259,40.13394,61.297013)" /><linearGradient
       id="名称未設定グラデーション_17-8"
       x1="71.82"
       y1="6.25"
       x2="71.82"
       y2="92.18"
       xlink:href="#%E5%90%8D%E7%A7%B0%E6%9C%AA%E8%A8%AD%E5%AE%9A%E3%82%B0%E3%83%A9%E3%83%87%E3%83%BC%E3%82%B7%E3%83%A7%E3%83%B3_17"
       gradientTransform="matrix(4.6929259,0,0,4.6929259,40.13394,61.297013)" /><linearGradient
       id="名称未設定グラデーション_17-9"
       x1="73.110001"
       y1="6.25"
       x2="73.110001"
       y2="92.18"
       xlink:href="#%E5%90%8D%E7%A7%B0%E6%9C%AA%E8%A8%AD%E5%AE%9A%E3%82%B0%E3%83%A9%E3%83%87%E3%83%BC%E3%82%B7%E3%83%A7%E3%83%B3_17"
       gradientTransform="matrix(4.6929259,0,0,4.6929259,40.13394,61.297013)" /><linearGradient
       id="名称未設定グラデーション_17-10"
       x1="75.599998"
       y1="6.25"
       x2="75.599998"
       y2="92.169998"
       xlink:href="#%E5%90%8D%E7%A7%B0%E6%9C%AA%E8%A8%AD%E5%AE%9A%E3%82%B0%E3%83%A9%E3%83%87%E3%83%BC%E3%82%B7%E3%83%A7%E3%83%B3_17"
       gradientTransform="matrix(4.6929259,0,0,4.6929259,40.13394,61.297013)" /><linearGradient
       id="名称未設定グラデーション_17-11"
       x1="71.610001"
       y1="6.25"
       x2="71.610001"
       y2="92.169998"
       xlink:href="#%E5%90%8D%E7%A7%B0%E6%9C%AA%E8%A8%AD%E5%AE%9A%E3%82%B0%E3%83%A9%E3%83%87%E3%83%BC%E3%82%B7%E3%83%A7%E3%83%B3_17"
       gradientTransform="matrix(4.6929259,0,0,4.6929259,40.13394,61.297013)" /><linearGradient
       id="名称未設定グラデーション_17-12"
       x1="75.25"
       y1="6.25"
       x2="75.25"
       y2="92.18"
       xlink:href="#%E5%90%8D%E7%A7%B0%E6%9C%AA%E8%A8%AD%E5%AE%9A%E3%82%B0%E3%83%A9%E3%83%87%E3%83%BC%E3%82%B7%E3%83%A7%E3%83%B3_17"
       gradientTransform="matrix(4.6929259,0,0,4.6929259,40.13394,61.297013)" /><linearGradient
       id="名称未設定グラデーション_17-13"
       x1="73.809998"
       y1="6.25"
       x2="73.809998"
       y2="92.18"
       xlink:href="#%E5%90%8D%E7%A7%B0%E6%9C%AA%E8%A8%AD%E5%AE%9A%E3%82%B0%E3%83%A9%E3%83%87%E3%83%BC%E3%82%B7%E3%83%A7%E3%83%B3_17"
       gradientTransform="matrix(4.6929259,0,0,4.6929259,40.13394,61.297013)" /><linearGradient
       id="名称未設定グラデーション_17-14"
       x1="47.240002"
       y1="6.2600002"
       x2="47.240002"
       y2="92.169998"
       xlink:href="#%E5%90%8D%E7%A7%B0%E6%9C%AA%E8%A8%AD%E5%AE%9A%E3%82%B0%E3%83%A9%E3%83%87%E3%83%BC%E3%82%B7%E3%83%A7%E3%83%B3_17"
       gradientTransform="matrix(4.6929259,0,0,4.6929259,40.13394,61.297013)" /><linearGradient
       id="名称未設定グラデーション_17-15"
       x1="68.339996"
       y1="6.25"
       x2="68.339996"
       y2="92.18"
       xlink:href="#%E5%90%8D%E7%A7%B0%E6%9C%AA%E8%A8%AD%E5%AE%9A%E3%82%B0%E3%83%A9%E3%83%87%E3%83%BC%E3%82%B7%E3%83%A7%E3%83%B3_17"
       gradientTransform="matrix(4.6929259,0,0,4.6929259,40.13394,61.297013)" /><linearGradient
       id="名称未設定グラデーション_17-16"
       x1="55.150002"
       y1="6.25"
       x2="55.150002"
       y2="92.18"
       xlink:href="#%E5%90%8D%E7%A7%B0%E6%9C%AA%E8%A8%AD%E5%AE%9A%E3%82%B0%E3%83%A9%E3%83%87%E3%83%BC%E3%82%B7%E3%83%A7%E3%83%B3_17"
       gradientTransform="matrix(4.6929259,0,0,4.6929259,40.13394,61.297013)" /><linearGradient
       id="名称未設定グラデーション_17-17"
       x1="62.279999"
       y1="6.25"
       x2="62.279999"
       y2="92.18"
       xlink:href="#%E5%90%8D%E7%A7%B0%E6%9C%AA%E8%A8%AD%E5%AE%9A%E3%82%B0%E3%83%A9%E3%83%87%E3%83%BC%E3%82%B7%E3%83%A7%E3%83%B3_17"
       gradientTransform="matrix(4.6929259,0,0,4.6929259,40.13394,61.297013)" /><linearGradient
       id="名称未設定グラデーション_17-18"
       x1="69.93"
       y1="6.25"
       x2="69.93"
       y2="92.18"
       xlink:href="#%E5%90%8D%E7%A7%B0%E6%9C%AA%E8%A8%AD%E5%AE%9A%E3%82%B0%E3%83%A9%E3%83%87%E3%83%BC%E3%82%B7%E3%83%A7%E3%83%B3_17"
       gradientTransform="matrix(4.6929259,0,0,4.6929259,40.13394,61.297013)" /><linearGradient
       id="名称未設定グラデーション_17-19"
       x1="54.580002"
       y1="6.25"
       x2="54.580002"
       y2="92.169998"
       xlink:href="#%E5%90%8D%E7%A7%B0%E6%9C%AA%E8%A8%AD%E5%AE%9A%E3%82%B0%E3%83%A9%E3%83%87%E3%83%BC%E3%82%B7%E3%83%A7%E3%83%B3_17"
       gradientTransform="matrix(4.6929259,0,0,4.6929259,40.13394,61.297013)" /><linearGradient
       id="名称未設定グラデーション_17-20"
       x1="61.09"
       y1="6.25"
       x2="61.09"
       y2="92.18"
       xlink:href="#%E5%90%8D%E7%A7%B0%E6%9C%AA%E8%A8%AD%E5%AE%9A%E3%82%B0%E3%83%A9%E3%83%87%E3%83%BC%E3%82%B7%E3%83%A7%E3%83%B3_17"
       gradientTransform="matrix(4.6929259,0,0,4.6929259,40.13394,61.297013)" /><linearGradient
       id="名称未設定グラデーション_17-21"
       x1="12.74"
       y1="6.25"
       x2="12.74"
       y2="92.169998"
       xlink:href="#%E5%90%8D%E7%A7%B0%E6%9C%AA%E8%A8%AD%E5%AE%9A%E3%82%B0%E3%83%A9%E3%83%87%E3%83%BC%E3%82%B7%E3%83%A7%E3%83%B3_17"
       gradientTransform="matrix(4.6929259,0,0,4.6929259,40.13394,61.297013)" /><linearGradient
       id="名称未設定グラデーション_17-22"
       x1="86.720001"
       y1="6.25"
       x2="86.720001"
       y2="92.18"
       xlink:href="#%E5%90%8D%E7%A7%B0%E6%9C%AA%E8%A8%AD%E5%AE%9A%E3%82%B0%E3%83%A9%E3%83%87%E3%83%BC%E3%82%B7%E3%83%A7%E3%83%B3_17"
       gradientTransform="matrix(4.6929259,0,0,4.6929259,40.13394,61.297013)" /><linearGradient
       id="名称未設定グラデーション_17-23"
       x1="12.09"
       y1="6.25"
       x2="12.09"
       y2="92.18"
       xlink:href="#%E5%90%8D%E7%A7%B0%E6%9C%AA%E8%A8%AD%E5%AE%9A%E3%82%B0%E3%83%A9%E3%83%87%E3%83%BC%E3%82%B7%E3%83%A7%E3%83%B3_17"
       gradientTransform="matrix(4.6929259,0,0,4.6929259,40.13394,61.297013)" /><linearGradient
       id="名称未設定グラデーション_17-24"
       x1="87.349998"
       y1="6.25"
       x2="87.349998"
       y2="92.169998"
       xlink:href="#%E5%90%8D%E7%A7%B0%E6%9C%AA%E8%A8%AD%E5%AE%9A%E3%82%B0%E3%83%A9%E3%83%87%E3%83%BC%E3%82%B7%E3%83%A7%E3%83%B3_17"
       gradientTransform="matrix(4.6929259,0,0,4.6929259,40.13394,61.297013)" /><clipPath
       id="clip-path-2"><rect
         class="cls-2"
         x="-34.299999"
         y="311.5"
         width="1299.7"
         height="478.98999"
         id="rect585" /></clipPath><clipPath
       clipPathUnits="userSpaceOnUse"
       id="clipPath1368"><g
         id="g1372"><path
           class="cls-1"
           d="m 219.40371,364.46003 v -42.23634 h 88.6963 v 42.23634 h -61.94662 v 1.40787 c 7.50868,2.34647 15.01736,5.16222 22.99533,7.03939 a 13.140193,13.140193 0 0 1 11.73232,12.20161 63.823792,63.823792 0 0 1 -29.56543,-2.81576 c -1.40788,-0.46929 -2.81576,-3.28504 -3.28505,-5.63151 -2.81576,-10.32443 -8.91656,-14.07877 -19.71029,-12.2016 a 55.845818,55.845818 0 0 1 -8.91656,0 z m 71.80177,-15.01737 v -11.26302 h -51.62219 v 11.26302 z"
           id="path1370"
           style="fill:url(#linearGradient1374);stroke-width:4.69293" /></g></clipPath><linearGradient
       inkscape:collect="always"
       xlink:href="#%E5%90%8D%E7%A7%B0%E6%9C%AA%E8%A8%AD%E5%AE%9A%E3%82%B0%E3%83%A9%E3%83%87%E3%83%BC%E3%82%B7%E3%83%A7%E3%83%B3_17"
       id="linearGradient1374"
       gradientUnits="userSpaceOnUse"
       gradientTransform="matrix(4.6929259,0,0,4.6929259,40.13394,61.297013)"
       x1="47.66"
       y1="6.25"
       x2="47.66"
       y2="92.18" /><linearGradient
       inkscape:collect="always"
       xlink:href="#linearGradient3497"
       id="linearGradient3501"
       x1="6.450377"
       y1="43.491989"
       x2="46.666241"
       y2="163.58498"
       gradientUnits="userSpaceOnUse" /></defs><g
     inkscape:label="Layer 1"
     inkscape:groupmode="layer"
     id="layer1"><g
       id="g3491"
       style="fill-opacity:1;fill:url(#linearGradient3501)"><g
         id="g5076"
         transform="translate(-0.77338779,-5.2916669)"
         style="fill:url(#linearGradient3501);fill-opacity:1"><path
           id="path1569"
           clip-path="url(#clipPath1368)"
           style="fill:url(#linearGradient3501);stroke-width:4.69293;fill-opacity:1"
           class="cls-6"
           d="m 219.40361,322.22374 v 42.23618 a 55.845818,55.845818 0 0 0 8.91677,0 c 4.63803,-0.80661 8.40737,-0.57024 11.42411,0.77722 h 6.40891 v -0.77722 H 308.1 v -42.23618 z"
           transform="matrix(0.09999997,0,0,0.09999997,3.8021057,8.3613525)" /><path
           id="path2547"
           style="fill:url(#linearGradient3501);fill-opacity:1;stroke:none;stroke-width:0.0132292;stroke-linejoin:round"
           d="m 29.215218,27.584312 v 1.68946 h -3.050406 l 0.329178,-0.41894 -0.390725,0.001 c -0.18168,0.53537 -0.543419,0.53934 -1.487092,0.37083 l 0.367367,-0.36742 -0.475991,0.001 c -0.227306,0.54629 -0.443084,0.52057 -1.486988,0.36592 l 0.5025,-0.36293 -0.436871,0.001 c -0.09817,0.17356 -0.252469,0.34178 -0.487981,0.50235 a 0.28157546,0.28157546 0 0 0 -0.04692,0.18774 v 1.7833 h 2.205653 l 0.0939,0.18774 c 0,1.9241 -7e-6,3.84816 0.04692,5.77226 0,0.3285 -0.23468,0.37543 -0.469325,0.37543 h -1.830224 v 7.18018 h 2.252627 v -5.16222 h 10.699859 v 5.06837 l 1.309997,0.17467 0.989497,-0.37228 v -6.88872 h -2.299494 v -6.38235 h 2.299494 a 12.248533,12.248533 0 0 1 0,-1.31403 1.0324434,1.0324434 0 0 0 -0.656959,-1.12628 c -0.174605,-0.0735 -0.319612,-0.15638 -0.441214,-0.2479 l -0.514282,0.30231 0.720833,0.1802 c -0.496607,0.191 -0.952374,0.15375 -1.298473,-0.0397 l -0.431394,-7e-4 0.181178,0.18118 h -1.313977 c -0.03293,-0.0689 -0.05788,-0.12245 -0.08666,-0.18314 l -0.395686,-6e-4 0.15384,0.23068 h -2.252626 v -1.68946 z m 3.573063,1.45743 c -0.0033,0.0296 -0.0064,0.0592 -0.0064,0.0913 l 0.131518,-0.0911 z m -5.403287,2.15615 h 5.678412 c 0.234646,0.93858 0.234648,0.98547 -0.703936,0.98547 h -4.974476 z m 0,2.76882 h 5.772308 v 0.89162 h -5.772308 z m 0.04692,2.67493 h 5.678464 c 0.187716,1.03244 0.140744,1.03244 -0.75091,1.03244 h -4.927554 z m 11.164749,7.59426 c -0.0296,0.0265 -0.0588,0.0535 -0.0887,0.0794 l 0.087,-0.0327 z" /><path
           id="path612"
           style="fill:url(#linearGradient3501);fill-opacity:1;stroke-width:0.469293"
           class="cls-4"
           d="m 51.650763,14.489302 c -0.13529,-0.002 -0.2607,0.0135 -0.36629,0.0487 -0.56053,0.252 -1.1414,0.4561 -1.73637,0.61009 -2.34646,0.75086 -4.83372,0.84474 -7.22711,0.9386 -2.39338,0.0939 -4.83372,0.14074 -7.180176,-0.42241 -1.17323,-0.28157 -2.064883,-0.0469 -2.768823,0.89168 -0.09386,0.0939 0.328508,0.46931 -0.375429,0.23466 -0.703937,-0.23464 -1.220165,0.0938 -1.689458,0.56312 -0.797794,-0.89165 -1.126281,-0.84469 -2.205652,0.14082 l -1.173262,-1.12634 c -0.598367,-0.53966 -1.439419,-0.7186 -2.205652,-0.46927 l -2.440315,0.61009 c -0.891656,0.14079 -1.830247,0.46929 -2.7219,0.37543 -2.909609,-0.23465 -5.866162,-0.657 -8.588053,-1.83023 l -0.750858,-0.23466 c -0.5983133,-0.0338 -1.1697403,0.25195 -1.5017163,0.75086 -0.281575,0.51622 0.187698,0.7978 0.469273,1.03244 l 4.2705403,3.28507 0.422401,0.32851 -0.09389,0.14077 -2.909589,-0.46928 c -1.0793703,-0.28157 -2.2526083,0.37544 -2.7219003,0.70394 -0.469291,0.3285 -0.422362,0.70393 0,1.07937 l 0.422352,0.23466 7.6025303,4.22362 c 0.884413,0.55942 1.982448,0.664 2.956563,0.28158 1.830237,-0.70394 3.707402,-1.31404 5.584567,-1.92412 0.197166,-0.0617 0.405803,-0.0778 0.610092,-0.0469 -0.65701,1.07937 -1.736375,1.50175 -2.815744,1.92412 0.123204,0.18846 0.218062,0.39401 0.281532,0.61004 0.375435,0.84472 0.844752,1.68946 -0.187688,2.39339 -0.0012,0.003 -0.0023,0.005 -0.0034,0.008 l 0.431188,-0.14764 c -0.002,-3e-4 -0.0034,-5e-4 -0.0054,-8e-4 l 0.844754,-0.61009 -0.469326,-1.7833 c 0.844727,-0.70394 1.595591,-1.26712 2.440317,-1.8772 0.202238,0.0615 0.392639,0.15669 0.563169,0.28159 -0.47848,0.36099 -0.98013,0.69021 -1.501717,0.98552 -0.245967,0.14076 -0.362614,0.43237 -0.281585,0.70393 0.131447,0.49025 0.147508,1.00428 0.04692,1.50177 -0.128821,0.38646 -0.214538,0.62088 -0.347318,0.75236 l 0.375068,-0.0292 0.77003,-0.77008 c -0.09386,-0.37543 -0.797805,-0.84473 -0.281585,-1.36095 0.516222,-0.51622 0.938632,-1.03243 1.407925,-1.4548 0.385989,-0.28296 0.813382,-0.50457 1.267053,-0.65701 -0.237373,0.67218 -0.724852,1.2269 -1.360949,1.54869 -0.333689,0.10599 -0.490808,0.48755 -0.328507,0.79778 0.05739,0.23042 0.08889,0.46653 0.0939,0.70394 -0.05954,0.59545 -0.127878,0.95521 -0.285874,1.15512 l 0.321996,-0.007 0.386228,-0.49155 0.610092,0.18774 c -0.242025,-0.4353 -0.446142,-0.89063 -0.610092,-1.36095 -0.04693,-0.0939 0.04691,-0.32854 0.140767,-0.4224 l 1.548691,-1.59556 c 1.032442,0.75087 1.971036,0.75087 3.050407,0 0.610079,0.56315 1.267094,1.1732 1.689458,1.59556 0.42236,0.42237 0.04688,1.03245 -0.04697,1.31403 -0.09386,0.28157 -0.281534,0.46933 -0.281534,0.79783 l 0.61004,-0.4224 0.335638,0.50348 0.356154,-0.013 c -0.502441,-1.05072 -0.501105,-1.06541 -0.175545,-2.36766 -0.934023,-0.22926 -1.626715,-1.01556 -1.736378,-1.97104 0.56315,0.0939 0.938578,0.37546 1.079364,0.84476 0.140788,0.46929 1.220132,0.93858 1.220132,1.36095 0,0.42236 -0.04692,1.07936 -0.04692,1.7833 l 0.422403,-0.18774 0.543223,0.54327 0.554488,-0.0424 c -0.682286,-0.18467 -1.092069,-0.88479 -0.8631,-1.76796 0.186576,-0.48033 -0.07166,-1.01836 -0.563118,-1.17326 -0.310581,-0.21719 -0.580623,-0.48721 -0.797832,-0.79778 -0.04693,-0.0469 0.09389,-0.23464 0.140818,-0.37543 l 0.328507,0.18769 1.126288,1.22018 c 0.15765,0.0957 0.274583,0.24601 0.328508,0.42236 0.140787,0.70393 0.281572,1.40789 0.375429,1.97104 l 0.884028,0.22097 0.572782,-0.0589 c -0.0853,-0.0687 -0.181064,-0.12347 -0.283601,-0.16211 -0.891653,-0.37544 -1.032442,-0.98555 -1.032442,-1.83028 -0.01966,-0.28067 -0.135708,-0.54593 -0.328507,-0.75086 l -1.501718,-1.36095 c 0.985513,-2.11181 0.469273,-3.80126 -1.267105,-5.20913 0.321545,0.11948 0.610791,0.31231 0.844753,0.56317 0.992694,0.91673 1.390979,2.31072 1.032444,3.61352 -0.225495,0.8138 0.120177,1.678 0.844703,2.11181 0.578681,0.38377 1.191338,0.71366 1.830273,0.98552 0.22898,0.0405 0.46474,-0.01 0.65701,-0.14077 0.61008,-0.51622 1.22014,-1.12631 1.87715,-1.64253 0.1876,-0.14136 0.42797,-0.19286 0.65701,-0.14077 0.98552,0.28158 1.97105,0.70395 2.95657,0.98552 0.65237,0.27467 1.39386,0.24016 2.01791,-0.0939 2.86856,-1.55717 5.53263,-3.46457 7.93104,-5.67841 v -0.23467 c -0.51622,-0.75086 -1.17323,-0.89165 -2.11181,-0.70393 -0.93859,0.18771 -1.97101,0.23464 -2.90959,0.3285 -0.0469,-0.0469 -0.0469,-0.0939 -0.0469,-0.18774 l 0.46927,-0.3285 3.75434,-3.05036 c 0.22988,-0.19639 0.33727,-0.50066 0.28159,-0.79783 -0.15252,-0.45756 -0.92467,-0.7912 -1.51092,-0.79954 z m -0.0566,0.59009 c 0.008,3e-5 0.0168,2e-4 0.0252,5e-4 0.29282,0.0104 0.63599,0.17959 0.97916,0.25585 v 0.23466 c -1.72745,1.72561 -3.70503,3.18112 -5.86615,4.31752 l -0.70394,0.37543 c -1.11834,0.70256 -2.47909,0.90666 -3.75434,0.56312 l -5.537644,-1.07937 c -0.272886,-0.0728 -0.539631,-0.16699 -0.79778,-0.28159 -0.844725,-0.37543 -1.689474,-0.75086 -2.628057,-0.37542 -0.09386,-0.42237 -0.234655,-0.79778 -0.281584,-1.17322 0.01326,-0.1579 0.07941,-0.30671 0.18774,-0.42235 0.589694,-0.44522 1.335051,-0.63156 2.064887,-0.51624 0.859722,0.0469 1.72136,0.0469 2.581078,0 l 5.25612,-0.37543 c 2.86267,-0.14079 5.67843,-0.37542 8.30646,-1.50172 0.0539,-0.0154 0.1103,-0.022 0.16883,-0.0218 z m -41.6224083,0.11756 c 0.1957703,-0.003 0.4227273,0.0802 0.7658963,0.2327 2.721891,1.17323 5.5846,1.59557 8.494208,1.87715 1.534362,0.0704 3.07186,0.0233 4.599046,-0.14077 1.236728,-0.0482 2.43976,0.4093 3.331992,1.26706 0.516219,0.37543 0.328488,1.22018 -0.234664,1.54869 -1.54866,0.79779 -3.238116,0.61009 -4.833707,0.98552 -1.348284,0.30288 -2.710935,0.53783 -4.082799,0.70394 -0.441609,0.0983 -0.903273,0.0488 -1.314027,-0.14082 -2.440319,-1.68945 -4.833709,-3.51969 -7.2740253,-5.25606 -0.150164,-0.13467 -0.277034,-0.29323 -0.375481,-0.46928 0.417963,-0.41796 0.637436,-0.60429 0.923561,-0.60813 z m 24.1651853,0.74885 c 0.01842,-2e-4 0.03704,-2e-4 0.05581,5e-5 0.200182,0.003 0.420197,0.0352 0.666574,0.0938 l 2.909589,0.46933 c 0,0.0469 -10e-6,0.0938 0.0469,0.0938 -0.734465,0.047 -1.471183,0.047 -2.20565,0 -0.879773,-0.1708 -1.791365,0.0149 -2.534211,0.51625 l -0.422352,0.0938 c -0.02137,-0.14752 0.01202,-0.29776 0.09384,-0.42235 0.409162,-0.57965 0.818315,-0.83727 1.389476,-0.8448 z m -8.916352,0.32122 c 0.01936,-2e-4 0.03868,-2e-4 0.05793,0 0.900361,0.009 1.684965,0.44877 2.353704,1.36829 0.101323,0.18685 0.149978,0.39773 0.140767,0.61009 -1.314016,-1.07937 -2.721894,-1.68945 -4.5052,-1.40787 0.701828,-0.36939 1.352733,-0.56433 1.952799,-0.57051 z m 6.517326,3.70732 c 0.01564,-2e-4 0.03133,-2e-4 0.04703,0 0.263121,0.004 0.532858,0.0661 0.774837,0.19513 1.132354,0.54659 1.845914,1.69928 1.830223,2.95656 -0.04005,0.28612 -0.102809,0.5686 -0.187689,0.84476 -0.140788,0.42236 -0.422393,0.75082 -0.844754,0.65696 -0.422362,-0.0939 -0.797797,-0.14079 -1.032443,-0.70394 -0.289735,-0.66939 -0.68593,-1.28746 -1.17321,-1.83022 -0.657008,-0.65701 -0.891673,-0.98549 -0.56317,-1.54864 0.208844,-0.35802 0.664238,-0.5643 1.149181,-0.57061 z m 20.297519,0.007 h 0.79778 l 0.0938,0.23466 -0.42235,0.32851 c -2.11473,1.75405 -4.37558,3.32407 -6.75783,4.69289 -0.50584,0.31468 -1.12687,0.38369 -1.68946,0.18774 -1.07937,-0.32851 -2.15872,-0.75091 -3.23809,-1.12634 -0.11293,-0.052 -0.21009,-0.13292 -0.28159,-0.23461 -0.52689,-1.33301 -1.42208,-2.48864 -2.58108,-3.33199 l -0.18774,-0.28159 c 1.40787,0.32851 2.29956,0.51625 3.989,0.89168 1.68946,0.37543 3.28501,0.37542 4.73982,-0.61009 0.53944,-0.31875 1.15689,-0.48123 1.78335,-0.46928 1.26709,0 2.48726,-0.18772 3.75435,-0.28158 z m -23.933938,0.18769 c 0.281575,0.18771 0.703923,0.2816 0.797781,0.51624 0.08707,0.40727 0.05448,0.83103 -0.09385,1.22019 -0.281574,0.75086 -0.703938,1.40786 -1.032443,2.15873 -0.175813,0.54806 -0.781901,0.82946 -1.314026,0.61009 -0.894584,-0.33047 -1.399208,-1.2792 -1.17321,-2.20571 0.390261,-1.26333 1.499907,-2.16955 2.815743,-2.29954 z m -17.969388,0.0217 c 0.104766,-5e-4 0.212554,0.008 0.324011,0.0252 l 4.035876,0.5162 c 0.186398,0.0124 0.365436,0.0775 0.516247,0.18774 l 0.891625,0.61004 c 0.696686,0.52636 1.598144,0.69972 2.440367,0.46932 2.205671,-0.42236 4.458256,-0.75085 6.710856,-1.12629 h 0.516247 c -0.703937,0.98552 -1.079383,1.92406 -0.610092,3.05036 l -0.422351,0.14082 -5.678463,2.01796 c -0.668218,0.27615 -1.424488,0.24176 -2.064886,-0.0939 l -8.0718053,-4.45828 c -0.201544,-0.12135 -0.390237,-0.26286 -0.56317,-0.42235 0.657008,-0.49276 1.242178,-0.91364 1.9755383,-0.91685 z m 19.518027,1.43309 1.92412,1.50172 c -0.04693,0.0939 -0.09384,0.14081 -0.09384,0.18774 -0.868362,-0.58397 -1.988944,-0.6382 -2.909639,-0.14082 z m 0.423953,1.56011 c 0.560686,0.006 1.089544,0.28773 1.453244,0.83329 -1.022044,-0.45868 -2.197849,-0.42411 -3.191173,0.0938 0.492756,-0.61008 1.102818,-0.91514 1.683565,-0.92687 0.01815,-4e-4 0.03628,-5e-4 0.05436,-3e-4 z m -0.06889,0.84915 c 0.454462,-7e-4 0.894428,0.11759 1.334389,0.35956 -0.914873,0.49831 -2.011877,0.53313 -2.956511,0.0939 0.573415,-0.29917 1.107067,-0.45266 1.622122,-0.45341 z m -1.528278,0.96966 h 2.862667 c -0.469293,0.84472 -1.971013,0.93858 -2.862667,0 z m 11.999894,18.25412 c -1.26641,-0.0105 -1.69014,1.0873 -2.61406,1.50306 v -0.0283 l -0.13907,0.31636 0.65531,0.0874 0.23466,-0.0938 1.92407,-1.7833 c -0.0205,-7e-4 -0.0408,-0.001 -0.0609,-0.001 z"
           sodipodi:nodetypes="sccsscsccccccccccccccsccccccccccccccccccccccscccccccccccccssccccccssccccccccccccccccccccccccccccccscccccsssccccccccccccccssccccccccccssscccccccssscccssscccsccssccccccccccsccccccccccscccccccccccccscccccsccsssccsccccccccccc" /><path
           id="path614"
           style="fill:url(#linearGradient3501);fill-opacity:1;stroke-width:0.469293"
           class="cls-1"
           d="m 28.830919,45.077242 -0.708225,0.0303 c 0.221698,0.20855 0.383967,0.51303 0.494957,0.92 0.04693,0.23465 0.187719,0.51619 0.328507,0.56312 a 6.3823772,6.3823772 0 0 0 2.956563,0.28158 1.3140189,1.3140189 0 0 0 -1.17321,-1.22013 c -0.655914,-0.15433 -1.28004,-0.37187 -1.898592,-0.57485 z" /><path
           class="cls-7"
           d="m 38.378953,27.068092 1.31402,-1.1263 c 0.42237,1.17323 0.84473,2.34646 1.22016,3.47276 0.0469,0.0939 -0.0469,0.28158 -0.14078,0.37544 -0.0939,0.0939 -0.84473,1.03244 -1.31402,1.64252 -0.37544,-1.50173 -0.75087,-2.86268 -1.07938,-4.36442 z"
           id="path620"
           style="fill:url(#linearGradient3501);fill-opacity:1;stroke-width:0.469293" /><path
           class="cls-8"
           d="m 40.678493,25.050142 c 1.22016,1.40787 1.64252,3.0504 2.20567,4.73985 l -1.31402,-0.18772 a 0.8447264,0.8447264 0 0 1 -0.42236,-0.37543 l -1.1263,-3.19119 c -0.23465,-0.61008 0.46929,-0.56315 0.65701,-0.98551 z"
           id="path622"
           style="fill:url(#linearGradient3501);fill-opacity:1;stroke-width:0.469293" /><path
           class="cls-9"
           d="m 41.100853,29.883852 0.75087,2.76882 a 0.46929245,0.46929245 0 0 1 -0.0939,0.42237 l -1.26709,1.22016 c -0.18772,-0.93859 -0.37543,-1.78332 -0.51622,-2.67497 a 0.75086791,0.75086791 0 0 1 0.18771,-0.61008 c 0.23465,-0.37544 0.56316,-0.65701 0.93859,-1.1263 z"
           id="path624"
           style="fill:url(#linearGradient3501);fill-opacity:1;stroke-width:0.469293" /><path
           class="cls-10"
           d="m 40.819273,37.486382 c -0.0469,-1.03244 -0.0939,-1.92409 -0.14078,-2.81575 a 0.70393866,0.70393866 0 0 1 0.18771,-0.46929 c 0.32851,-0.32851 0.70394,-0.61008 1.22016,-1.03245 0.0939,1.07938 0.18772,2.01796 0.28158,2.95655 a 0.98551414,0.98551414 0 0 1 -0.14079,0.3285 z"
           id="path626"
           style="fill:url(#linearGradient3501);fill-opacity:1;stroke-width:0.469293" /><path
           class="cls-11"
           d="m 41.570143,44.619632 c -0.42236,-0.89166 -0.70394,-1.68945 -0.0469,-2.53418 0.65701,-0.84473 0.51622,-0.98551 0.84473,-1.73638 a 9.9489999,9.9489999 0 0 1 0.70394,0.98551 0.61008018,0.61008018 0 0 1 0,0.56315 c -0.46929,0.93859 -0.98552,1.83024 -1.50174,2.7219 z"
           id="path628"
           style="fill:url(#linearGradient3501);fill-opacity:1;stroke-width:0.469293" /><path
           class="cls-12"
           d="m 44.198183,37.861822 -1.36095,-1.1263 a 0.51622169,0.51622169 0 0 1 -0.14079,-0.32851 l -0.28157,-2.86268 c 0.89165,-0.14079 0.93858,-0.0939 1.07937,0.7978 0.14079,0.89165 0.42236,2.2526 0.70394,3.51969 z"
           id="path630"
           style="fill:url(#linearGradient3501);fill-opacity:1;stroke-width:0.469293" /><path
           class="cls-13"
           d="m 40.443843,40.489862 c 0.23465,-0.93859 0.28158,-1.78332 0.61008,-2.53418 0.3285,-0.75087 0.75087,-0.7978 1.17323,-1.17323 l 0.18772,0.0938 c -0.0939,0.84473 -0.14079,1.73639 -0.23465,2.62804 a 0.93858489,0.93858489 0 0 1 -0.28157,0.32851 z"
           id="path632"
           style="fill:url(#linearGradient3501);fill-opacity:1;stroke-width:0.469293" /><path
           class="cls-14"
           d="m 43.353453,41.193802 -0.84472,-1.12631 a 0.89165565,0.89165565 0 0 1 -0.0939,-0.3285 l 0.28157,-2.67497 c 0.7978,0.46929 1.36095,0.98552 1.12631,2.01796 a 16.425236,16.425236 0 0 0 -0.32851,2.11182 z"
           id="path634"
           style="fill:url(#linearGradient3501);fill-opacity:1;stroke-width:0.469293" /><path
           class="cls-15"
           d="m 41.429353,29.930782 c 1.12631,-0.14079 1.22016,-0.0469 1.50174,0.93858 0.28157,0.98551 0.37543,1.54867 0.61008,2.34646 -1.26709,-0.0939 -1.26709,-0.0939 -1.54866,-1.17323 z"
           id="path636"
           style="fill:url(#linearGradient3501);fill-opacity:1;stroke-width:0.469293" /><path
           class="cls-16"
           d="m 28.14838,48.186252 0.563151,-1.1263 a 0.37543395,0.37543395 0 0 1 0.375434,-0.14079 l 2.768826,0.37544 c -0.140788,0.61008 -0.422364,0.98551 -1.173232,0.89165 z"
           id="path638"
           style="fill:url(#linearGradient3501);fill-opacity:1;stroke-width:0.469293" /><path
           class="cls-17"
           d="m 38.895173,46.731452 a 0.98551414,0.98551414 0 0 1 -0.0469,-0.28158 1.3140189,1.3140189 0 0 1 0.61009,-1.73638 15.768226,15.768226 0 0 0 1.36094,-1.1263 6.7108819,6.7108819 0 0 1 0.23465,0.84472 0.46929245,0.46929245 0 0 1 -0.0939,0.42237 z"
           id="path640"
           style="fill:url(#linearGradient3501);fill-opacity:1;stroke-width:0.469293" /><path
           class="cls-18"
           d="m 35.563201,46.637592 a 1.1263019,1.1263019 0 0 1 -0.985514,1.07937 c -0.938585,0.14079 -1.83024,0.42236 -2.721896,0.61008 a 1.1263019,1.1263019 0 0 1 1.032443,-1.26709 z"
           id="path642"
           style="fill:url(#linearGradient3501);fill-opacity:1;stroke-width:0.469293" /><path
           class="cls-19"
           d="m 35.563201,47.857752 a 6.7108819,6.7108819 0 0 0 0.140788,-0.75087 c 0.04693,-0.46929 0.281575,-0.65701 0.750867,-0.7978 0.469293,-0.14079 1.314017,-0.46929 1.971027,-0.70394 0.18772,1.03245 0.18772,1.03245 -0.70394,1.40788 z"
           id="path644"
           style="fill:url(#linearGradient3501);fill-opacity:1;stroke-width:0.469293" /><path
           class="cls-20"
           d="m 39.364473,43.211752 a 16.096731,16.096731 0 0 1 1.31402,-2.29953 c 0.23464,-0.32851 0.75086,-0.42236 1.26709,-0.65701 -0.28158,1.87717 -1.03245,2.62804 -2.58111,2.95654 z"
           id="path646"
           style="fill:url(#linearGradient3501);fill-opacity:1;stroke-width:0.469293" /><path
           class="cls-21"
           d="m 35.234696,46.402942 -2.815754,0.42236 c -0.09386,0 -0.281576,-0.18771 -0.375434,-0.3285 l -0.422364,-0.75087 3.003472,0.14079 a 1.6425236,1.6425236 0 0 1 0.61008,0.37543 z"
           id="path648"
           style="fill:url(#linearGradient3501);fill-opacity:1;stroke-width:0.469293" /><path
           class="cls-22"
           d="m 38.191243,45.417432 a 18.067759,18.067759 0 0 1 -2.252607,0.75086 c -0.328506,0.0469 -0.70394,-0.28157 -1.126302,-0.46929 1.079373,-0.51622 2.721899,-0.65701 3.378909,-0.28157 z"
           id="path650"
           style="fill:url(#linearGradient3501);fill-opacity:1;stroke-width:0.469293" /><path
           class="cls-23"
           d="m 14.914333,17.494522 a 2.6280377,2.6280377 0 0 1 -1.971027,0.0469 0.56315094,0.56315094 0 0 1 -0.234647,-0.42236 c -0.04693,-0.0939 0.140788,-0.23465 0.234647,-0.28158 a 2.5341792,2.5341792 0 0 1 1.971027,0.65701 z"
           id="path652"
           style="fill:url(#linearGradient3501);fill-opacity:1;stroke-width:0.469293" /><path
           class="cls-24"
           d="m 49.735833,16.227432 a 16.190589,16.190589 0 0 1 -1.50174,0.98552 1.3140189,1.3140189 0 0 1 -0.84472,-0.0939 c -0.0939,0 -0.0939,-0.42236 -0.0469,-0.42236 a 16.190589,16.190589 0 0 1 1.97103,-0.65701 c 0.0939,-0.0469 0.18771,0.0939 0.42236,0.18771 z"
           id="path654"
           style="fill:url(#linearGradient3501);fill-opacity:1;stroke-width:0.469293" /><path
           class="cls-25"
           d="m 12.849447,20.685712 a 12.295462,12.295462 0 0 1 1.548664,0.42237 c 0.140789,0.0469 0.234647,0.37543 0.375434,0.56315 a 1.5017358,1.5017358 0 0 1 -0.657009,0.14079 6.0069434,6.0069434 0 0 1 -1.267089,-0.23465 3.0034717,3.0034717 0 0 1 -0.61008,-0.46929 z"
           id="path656"
           style="fill:url(#linearGradient3501);fill-opacity:1;stroke-width:0.469293" /><path
           class="cls-26"
           d="m 49.923553,20.451072 c -0.51623,0.93858 -1.31402,1.17323 -1.97103,0.65701 a 0.51622169,0.51622169 0 0 1 -0.23465,-0.37544 0.51622169,0.51622169 0 0 1 0.37544,-0.23464 z"
           id="path658"
           style="fill:url(#linearGradient3501);fill-opacity:1;stroke-width:0.469293" /></g><g
         id="Contents"
         transform="matrix(0.02645832,0,0,0.02645832,-4.8160223,19.339802)"
         style="fill:url(#linearGradient3501);fill-opacity:1" /><g
         id="g1611"
         transform="matrix(0.02645832,0,0,0.02645832,-53.67917,19.339802)"
         style="fill:url(#linearGradient3501);fill-opacity:1" /><text
         xml:space="preserve"
         style="font-style:normal;font-variant:normal;font-weight:normal;font-stretch:normal;font-size:25px;font-family:AiharahudemojireishoFree;-inkscape-font-specification:AiharahudemojireishoFree;letter-spacing:5.29167px;writing-mode:tb-rl;fill:url(#linearGradient3501);fill-opacity:1;stroke:none;stroke-width:0.0132292;stroke-linejoin:round"
         x="22.842371"
         y="62.443382"
         id="text5000"><tspan
           sodipodi:role="line"
           id="tspan4998"
           style="font-style:normal;font-variant:normal;font-weight:normal;font-stretch:normal;font-size:25px;font-family:AiharahudemojireishoFree;-inkscape-font-specification:AiharahudemojireishoFree;writing-mode:tb-rl;stroke-width:0.0132292;fill:url(#linearGradient3501);fill-opacity:1"
           x="22.842371"
           y="62.443382">地学会會</tspan></text><text
         xml:space="preserve"
         style="font-size:10px;font-family:AiharahudemojireishoFree;-inkscape-font-specification:AiharahudemojireishoFree;letter-spacing:1.32292px;writing-mode:tb-rl;fill:url(#linearGradient3501);fill-opacity:1;stroke:none;stroke-width:0.0132292;stroke-linejoin:round;font-weight:normal;font-style:normal;font-stretch:normal;font-variant:normal"
         x="48.078388"
         y="44.925068"
         id="text5080"><tspan
           sodipodi:role="line"
           id="tspan5078"
           style="font-size:10px;writing-mode:tb-rl;stroke-width:0.0132292;-inkscape-font-specification:AiharahudemojireishoFree;font-family:AiharahudemojireishoFree;font-weight:normal;font-style:normal;font-stretch:normal;font-variant:normal;fill:url(#linearGradient3501);fill-opacity:1"
           x="48.078388"
           y="44.925068">長野県松本深志高等学校</tspan></text></g><rect
       style="fill:#b40000;fill-opacity:1;stroke-width:0.0976181;stroke-linejoin:round"
       id="rect4056"
       width="21"
       height="29.700001"
       x="66.430443"
       y="-38.044487"
       transform="rotate(90)" /></g></svg>
